<svg xmlns="http://www.w3.org/2000/svg" x="0px" y="0px" width="100" height="100" viewBox="0,0,256,256">
<g fill="none" fill-rule="nonzero" stroke="none" stroke-width="1" stroke-linecap="butt" stroke-linejoin="miter" stroke-miterlimit="10" stroke-dasharray="" stroke-dashoffset="0" font-family="none" font-weight="none" font-size="none" text-anchor="none" style="mix-blend-mode: normal"><g transform="scale(5.33333,5.33333)"><circle cx="24" cy="24" r="20" fill="#000000"></circle><path d="M29.91,37c-0.47,2.84 -2.94,5 -5.91,5c-2.97,0 -5.44,-2.16 -5.91,-5zM34,32h-20v3h20zM33.5,30c1,-1 2.5,-3.5 3,-5c-1.5,0.5 -6.5,1.5 -6.5,1.5c1,-1.5 2,-3.5 2,-6c0,-3.5 -4,-7 -3,-11.5c-2.5,2.5 -2.5,7.5 -2.5,9.5c-0.5,-1.5 -0.5,-3 -0.5,-4c0,-3 -3,-5.5 -2,-8.5c0,0 -2.5,1 -2.5,4c0,3.5 -0.5,5.5 -1.5,6.5c0,-3 -1,-5 -2.5,-5.5c0.5,1 0.5,1.5 0.5,2c0,1.5 -2.5,6 -2.5,9c0,2 1,3.5 2.5,4.5c0,0 -4,-1 -6.5,-1.5c0.5,1.5 2,4 3,5c0,0 17,0 19,0z" fill="#ffffff"></path></g></g>
</svg>